<svg width="180" height="194" viewBox="0 0 180 194" fill="none" xmlns="http://www.w3.org/2000/svg">
<g filter="url(#filter0_d_212:289)">
<path d="M48.4834 41.4326C36.4765 41.4326 26.7432 51.4904 26.7432 63.8976C26.7432 76.3047 36.4765 86.3625 48.4834 86.3625H54.5282V41.4326H48.4834Z" fill="#707287"/>
<path d="M131.516 41.4326C143.523 41.4326 153.256 51.4904 153.256 63.8976C153.256 76.3047 143.523 86.3625 131.516 86.3625H125.471V41.4326H131.516Z" fill="#707287"/>
<path d="M129.743 169.214L121.218 146.433L121.217 146.435C118.709 144.897 116.046 143.602 113.253 142.591C109.91 141.38 106.384 140.575 102.731 140.221V116.275H77.268V140.221C73.7671 140.56 70.3823 141.311 67.1648 142.438L66.7422 142.59C63.9501 143.601 61.2877 144.895 58.7814 146.433L50.2563 169.214L58.781 186H121.218V186L129.743 169.214Z" fill="#C7CFE2"/>
<path d="M77.2686 137.18C81.3586 138.173 85.6206 138.701 90.0004 138.701C94.3798 138.701 98.6418 138.173 102.732 137.18V116.275H77.2686V137.18Z" fill="#AFB6C7"/>
<path d="M89.9995 0C65.1114 0 44.9355 20.8484 44.9355 46.5661V81.2297C44.9355 106.947 65.1114 127.796 89.9995 127.796C114.887 127.796 135.063 106.947 135.063 81.2297V46.5661C135.063 20.8484 114.888 0 89.9995 0Z" fill="#C7CFE2"/>
<path d="M122.399 41.4326V76.0962C122.399 94.5567 107.865 109.576 89.9997 109.576C72.1344 109.576 57.6001 94.5571 57.6001 76.0962V41.4326H122.399Z" fill="#5B5D6E"/>
<path d="M116.773 32.707C118.587 32.707 120.057 31.1877 120.057 29.3136C120.057 27.4394 118.587 25.9202 116.773 25.9202C114.96 25.9202 113.489 27.4394 113.489 29.3136C113.489 31.1877 114.96 32.707 116.773 32.707Z" fill="#707287"/>
<path d="M104.109 32.707C105.923 32.707 107.393 31.1877 107.393 29.3136C107.393 27.4394 105.923 25.9202 104.109 25.9202C102.295 25.9202 100.825 27.4394 100.825 29.3136C100.825 31.1877 102.295 32.707 104.109 32.707Z" fill="#707287"/>
<path d="M58.782 146.434C45.7214 154.447 36.9644 169.165 36.9644 186H58.782V146.434Z" fill="#707287"/>
<path d="M121.218 146.434C134.279 154.447 143.036 169.165 143.036 186H121.218V146.434Z" fill="#707287"/>
<rect width="9.8537" height="40.1186" transform="matrix(0.706393 -0.70782 0.706393 0.70782 72.4219 58.0542)" fill="#F02525"/>
<rect width="9.8537" height="40.1186" transform="matrix(0.706393 0.70782 -0.706393 0.70782 100.761 51.0796)" fill="#F02525"/>
</g>
<defs>
<filter id="filter0_d_212:289" x="-4" y="0" width="188" height="194" filterUnits="userSpaceOnUse" color-interpolation-filters="sRGB">
<feFlood flood-opacity="0" result="BackgroundImageFix"/>
<feColorMatrix in="SourceAlpha" type="matrix" values="0 0 0 0 0 0 0 0 0 0 0 0 0 0 0 0 0 0 127 0" result="hardAlpha"/>
<feOffset dy="4"/>
<feGaussianBlur stdDeviation="2"/>
<feComposite in2="hardAlpha" operator="out"/>
<feColorMatrix type="matrix" values="0 0 0 0 0 0 0 0 0 0 0 0 0 0 0 0 0 0 0.25 0"/>
<feBlend mode="normal" in2="BackgroundImageFix" result="effect1_dropShadow_212:289"/>
<feBlend mode="normal" in="SourceGraphic" in2="effect1_dropShadow_212:289" result="shape"/>
</filter>
</defs>
</svg>
